<svg width="28" height="28" viewBox="0 0 28 28" fill="currentColor" xmlns="http://www.w3.org/2000/svg">
<g clip-path="url(#clip0_97_292)">
<path fill-rule="evenodd" clip-rule="evenodd" d="M14.0003 0.583374C10.6768 0.585098 7.46216 1.76224 4.93136 3.90432C2.40055 6.04639 0.718564 9.01372 0.186145 12.2757C-0.346273 15.5377 0.305591 18.8816 2.02519 21.7096C3.74479 24.5375 6.41999 26.6651 9.57243 27.7118C10.2679 27.8409 10.5299 27.4099 10.5299 27.0434C10.5299 26.6769 10.516 25.6142 10.5113 24.4525C6.61664 25.2938 5.79366 22.8089 5.79366 22.8089C5.15846 21.1954 4.24042 20.7712 4.24042 20.7712C2.97001 19.9092 4.33548 19.9253 4.33548 19.9253C5.74266 20.0244 6.48219 21.3614 6.48219 21.3614C7.72942 23.4889 9.75789 22.8735 10.5554 22.5139C10.6806 21.6126 11.0445 20.9995 11.4456 20.6514C8.33448 20.301 5.06572 19.107 5.06572 13.773C5.04644 12.3897 5.5627 11.0519 6.50769 10.0365C6.36396 9.68613 5.88407 8.27081 6.64446 6.34838C6.64446 6.34838 7.81983 5.97496 10.4951 7.77522C12.7898 7.15127 15.2109 7.15127 17.5055 7.77522C20.1785 5.97496 21.3515 6.34838 21.3515 6.34838C22.1142 8.2662 21.6344 9.68152 21.4906 10.0365C22.4386 11.0521 22.956 12.3922 22.9349 13.7776C22.9349 19.1231 19.6592 20.301 16.5434 20.6445C17.0442 21.0778 17.4916 21.9238 17.4916 23.2239C17.4916 25.0864 17.4754 26.5847 17.4754 27.0434C17.4754 27.4145 17.7281 27.8478 18.4375 27.7118C21.5903 26.665 24.2657 24.537 25.9853 21.7086C27.7049 18.8802 28.3564 15.5357 27.8234 12.2734C27.2904 9.01114 25.6075 6.04379 23.0759 3.90208C20.5443 1.76037 17.3289 0.584005 14.0049 0.583374H14.0003Z"/>
<path d="M5.30185 20.5707C5.27171 20.6399 5.16044 20.6606 5.07003 20.6122C4.97961 20.5638 4.91239 20.4739 4.94485 20.4025C4.9773 20.331 5.08626 20.3126 5.17667 20.361C5.26708 20.4094 5.33663 20.5016 5.30185 20.5707Z"/>
<path d="M5.86985 21.2C5.82184 21.224 5.76691 21.2308 5.71447 21.219C5.66203 21.2072 5.61534 21.1777 5.58239 21.1354C5.49197 21.0386 5.47342 20.9049 5.54297 20.845C5.61251 20.7851 5.73771 20.8127 5.82812 20.9096C5.91853 21.0064 5.9394 21.1401 5.86985 21.2Z"/>
<path d="M6.42161 21.9999C6.33583 22.0598 6.18977 21.9999 6.10864 21.88C6.0862 21.8585 6.06836 21.8327 6.05617 21.8042C6.04398 21.7757 6.03769 21.745 6.03769 21.714C6.03769 21.6831 6.04398 21.6524 6.05617 21.6239C6.06836 21.5954 6.0862 21.5696 6.10864 21.5481C6.19441 21.4904 6.34047 21.5481 6.42161 21.6656C6.50275 21.7832 6.50507 21.9399 6.42161 21.9999Z"/>
<path d="M7.1704 22.7744C7.09389 22.8597 6.93857 22.8366 6.81107 22.7214C6.68356 22.6061 6.65342 22.4494 6.72992 22.3664C6.80642 22.2834 6.96175 22.3064 7.09389 22.4194C7.22603 22.5323 7.25154 22.6914 7.1704 22.7744Z"/>
<path d="M8.22053 23.2261C8.18575 23.3344 8.02811 23.3828 7.87047 23.3367C7.71282 23.2906 7.6085 23.1615 7.63864 23.0509C7.66878 22.9403 7.82874 22.8895 7.9887 22.9403C8.14866 22.991 8.25066 23.1131 8.22053 23.2261Z"/>
<path d="M9.36605 23.3045C9.36605 23.4174 9.23623 23.5142 9.06932 23.5165C8.9024 23.5188 8.76562 23.4266 8.76562 23.3137C8.76562 23.2007 8.89544 23.1039 9.06236 23.1016C9.22927 23.0993 9.36605 23.1892 9.36605 23.3045Z"/>
<path d="M10.4322 23.127C10.4531 23.24 10.3372 23.3575 10.1703 23.3852C10.0033 23.4129 9.85729 23.346 9.83643 23.2354C9.81556 23.1247 9.93611 23.0049 10.0984 22.9749C10.2607 22.9449 10.4114 23.0141 10.4322 23.127Z"/>
</g>
<defs>
<clipPath id="clip0_97_292">
<rect width="28" height="28" fill="currentColor"/>
</clipPath>
</defs>
</svg>
