<svg width="26" height="34" fill="currentColor" xmlns="http://www.w3.org/2000/svg">
<path d="M8.255 7.181c-.849.341-1.18 1.337-.694 2.087.056.086 1.8 1.853 3.875 3.927 2.076 2.073 3.774 3.789 3.774 3.813 0 .024-1.698 1.74-3.774 3.814-2.075 2.073-3.819 3.84-3.875 3.927a1.413 1.413 0 0 0 .19 1.756c.27.269.525.376.944.396.669.033.275.379 5.332-4.684 4.963-4.97 4.628-4.593 4.628-5.209 0-.615.332-.241-4.609-5.193-4.991-5.002-4.663-4.71-5.293-4.706-.193.001-.395.03-.498.072" 
fill="currentColor" fill-rule="evenodd"/></svg>